<svg xmlns="http://www.w3.org/2000/svg" viewBox="0 0 1024 1024"><defs><style>.a{fill:#fff;}</style></defs><rect class="a" width="1024" height="1024"/><path d="M542.7,226.4c0,7.4-7.4,18.1-22.3,32s-33.1,27.4-54.5,40.2c-2.8,8.8-6.9,24.7-12.3,47.9-8.6,36.2-16.6,62-23.8,77.1s-19.2,30.7-35.9,46.4q-72.1,68.3-161.7,68.3c-17.1,0-32.3-2.9-45.4-8.6-7.2,14.2-10.8,26.6-10.8,37.1,0,13.3,4.4,25.5,13.3,36.6a4.6,4.6,0,0,1,1.3,3.3c0,1.2-.7,1.8-2.3,1.8-3.5,0-7.4-4.8-11.5-14.3s-6.2-18.6-6.2-26.9c0-12.1,4-25.4,11.8-39.9-32.2-16.6-48.3-45.3-48.3-85.8q0-39.2,23.1-77.8t65-69.6q53.6-39.3,105.8-39.4c19,0,34,5.4,45.2,16S390,295.9,390,314.1a117.5,117.5,0,0,1-4.2,30.3Q419.9,321.8,446,306c11.1-24.2,25.1-45.1,41.9-62.5s31.4-26.1,43.9-26.1C539.1,217.4,542.7,220.4,542.7,226.4ZM385.8,313.2c0-16.2-5.1-29.3-15.4-39.1s-23.8-14.9-40.6-14.9q-62.2,0-120.4,64.8T151.2,458.2q0,45.6,33.5,64.8,15.8-25.8,45.2-56.7c-10.2-8.8-15.3-19.2-15.3-31.4a34.4,34.4,0,0,1,8.8-23.8c5.9-6.5,12.9-9.8,21.3-9.8,10.3,0,15.5,4.8,15.5,14.4a16.9,16.9,0,0,1-5.8,12.8,19.4,19.4,0,0,1-13.7,5.4c-7.5,0-11.3-3.6-11.3-10.8a15.1,15.1,0,0,1,2.3-7.4,23.8,23.8,0,0,0,.9-3.5c0-.9-.4-1.4-1.3-1.4-2.7,0-5.4,2.8-8.1,8.3a36.7,36.7,0,0,0-4.2,16.5q0,15.1,14.1,27.3,46.5-49,146.9-114.6C383.9,334.8,385.8,323,385.8,313.2Zm57.4-1c-18,11.4-37.8,24.4-59.2,38.9q-15.3,49-53.6,86.1t-73.5,37c-7.1,0-14.8-1.8-23.3-5.6a330.7,330.7,0,0,0-44.5,57c12.7,5.7,27,8.5,43.1,8.5q43.5,0,84.2-24.6t69.9-68.4a261.9,261.9,0,0,0,21.5-37.8c5.3-11.7,13.7-33.6,25.5-65.8C436,329.4,439.4,321,443.2,312.2Zm-65.5,42.6-15.2,10.4q-87.3,60.2-125.9,100.2a44.1,44.1,0,0,0,20.8,5.1q32.4,0,67.8-34T377.7,354.8Zm160.6-128c0-3.7-2.1-5.5-6.5-5.5-10.3,0-21.8,7.1-34.6,21.4a154.7,154.7,0,0,0-29.5,50.1q30.6-18.7,50.6-37.5C531.6,242.8,538.3,233.3,538.3,226.8Z"/><path d="M598.1,456.3q0,5.3-33.6,44.9c-18.5,22-33.2,32.9-44,32.9a21.9,21.9,0,0,1-17.3-8.2,29.4,29.4,0,0,1-7-19.8q0-9,9-25.2l-4.6,6.3q-21.3,27.3-31.3,36.5c-7.2,7-14.1,10.4-20.6,10.4a21.6,21.6,0,0,1-17.1-8q-6.9-8-6.9-19.5c0-8.9,3.4-19.2,10.4-30.8L477.2,405a62.4,62.4,0,0,0,12.3,1.6,127.5,127.5,0,0,0,15.7-1.6l-55.1,90.7c-5.5,9.3-8.3,17.5-8.3,24.5s2.9,10.5,8.8,10.5q23.4,0,75-87.3L548.2,405a55.2,55.2,0,0,0,12.1,1.6,114.2,114.2,0,0,0,16.4-1.6l-37,60.4q-26.4,43.1-26.4,55.3c0,6.6,3.2,10,9.5,10,12.4,0,32.4-19.5,60.2-58.4l7.2-10,4.2-5.1c.8-1.5,1.5-2.3,2.3-2.3A1.2,1.2,0,0,1,598.1,456.3Z"/><path d="M714.7,456.5c0,.5-1.4,2.5-4.1,6l-10,12.5c-31.9,39.4-59.4,59.1-82.2,59.1a35.8,35.8,0,0,1-27.2-11.7c-7.3-7.7-11-17.5-11-29.2q0-41.7,58.1-73.4,30.5-16.7,49.7-16.6a21.1,21.1,0,0,1,14.2,4.9,15.3,15.3,0,0,1,5.9,12.2c0,11.1-7.2,20.5-21.7,28.3s-38.7,15.1-72.7,21.9c-10.5,15.9-15.7,29.2-15.7,39.8,0,13.3,7.2,19.9,21.5,19.9q36.6,0,89.7-71.4c1.8-2.5,3.4-3.7,4.6-3.7A1.3,1.3,0,0,1,714.7,456.5Zm-19.5-42.9c0-5-2.7-7.4-8.1-7.4-8.2,0-18.9,5.6-32.3,17s-26.4,26-39.2,44.1q33.3-8.6,56.4-24.2C687.5,432.7,695.2,422.8,695.2,413.6Z"/><path d="M836.1,292.3Q738.9,454.2,722.8,482.5c-10.7,19-16.1,31.6-16.1,37.7s3,10.5,8.9,10.5q19.4,0,71.3-73.5c.8-1.5,1.7-2.3,2.8-2.3s.9.6.9,1.4-.7,2.1-2.3,3.7l-9.9,13.6q-43.8,60.6-64.7,60.5a20.4,20.4,0,0,1-16.3-7.5c-4.3-5-6.4-11.4-6.4-19.1a55,55,0,0,1,5.9-24.6c4-8,17.3-30.9,40.2-68.9q41.9-69.6,70.5-120.7a50,50,0,0,0,12.3,1.8A44.5,44.5,0,0,0,836.1,292.3Z"/><path d="M912,292.3Q814.8,454.2,798.7,482.5c-10.7,19-16,31.6-16,37.7s2.9,10.5,8.8,10.5q19.3,0,71.3-73.5c.8-1.5,1.7-2.3,2.8-2.3s.9.6.9,1.4-.7,2.1-2.3,3.7l-9.9,13.6q-43.8,60.6-64.7,60.5a20.4,20.4,0,0,1-16.3-7.5c-4.3-5-6.4-11.4-6.4-19.1a55,55,0,0,1,5.9-24.6c4-8,17.3-30.9,40.2-68.9q41.8-69.6,70.5-120.7a50.7,50.7,0,0,0,12.3,1.8A44.5,44.5,0,0,0,912,292.3Z"/><path d="M364.5,536.6c0,7.1-4.8,14.3-14.6,21.9,8.9,13.1,13.3,25.1,13.3,36.1,0,2.7-.8,4.1-2.4,4.1s-2-1.8-2-5.4c0-10.8-3.7-21.7-11.3-32.9q-23.4,17.6-63.9,30.2t-71.7,12.8a57.2,57.2,0,0,1-7.6-.4q-26,36.2-25.9,69.7c0,15.2,4.7,27.3,14.2,36.1s22.3,13.3,38.6,13.3q46.2,0,82.3-44.2,21.9-26.7,21.9-50.7c0-8.4-2.6-15.1-7.6-20.1s-11.8-7.5-20.3-7.5q-20.1,0-43.4,21.3c-15.4,14.2-23.2,27.5-23.2,39.8,0,1.1.4,1.6,1,1.6a2.6,2.6,0,0,0,1.3-.6c2.9-2.6,5.5-3.9,8-3.9,5.5,0,8.2,3,8.2,8.9q0,12-11.7,12c-7.1,0-10.7-4.3-10.7-13,0-15.4,7.9-30.7,23.5-45.9S292.1,597,308.1,597c20.8,0,31.1,11.4,31.1,34.2s-11.2,45-33.7,64.4-47.5,29.1-74.9,29.1q-28.7,0-48.2-19.3t-19.5-47.6q0-27.6,19.2-56.5-70-13-70.1-55.4,0-25.4,26.1-42.3c17.4-11.4,39-17,64.9-17q54.3,0,109.7,36.1a98,98,0,0,1,19.6-1.9C353.8,520.8,364.5,526.1,364.5,536.6Zm-56.4-13.3q-49.2-28.5-104.7-28.5-34.3,0-60.1,16.2c-17.1,10.8-25.6,23.5-25.6,37.9,0,25.9,21.9,42.5,65.7,50.1Q224.2,542.2,308.1,523.3Zm38.1,34.9q-12.4-18-33.5-31.9c-20.2,5.5-39.9,14.9-59.1,28.4s-35,28.7-47.3,45.9q33.8,0,74.9-12.4C308.6,580,330.2,569.9,346.2,558.2Zm15.7-21.6c0-8.8-8.6-13.3-25.9-13.3a100.9,100.9,0,0,0-19.3,2.3,127.4,127.4,0,0,1,31.9,31C357.5,549,361.9,542.4,361.9,536.6Z"/><path d="M462.4,665.6c0,2.3-7.8,12.8-23.6,31.5-12.8,15.4-22.8,23-30.2,23a15.3,15.3,0,0,1-12.2-5.5,21.4,21.4,0,0,1-4.7-14.1c0-5.8,1.8-12.1,5.2-18.9-10.8,15.1-19,25.3-24.8,30.6s-11.2,7.9-16.6,7.9-10.6-2.4-14.5-7.3-5.8-11.1-5.8-18.6c0-20.7,14.6-39.1,43.9-55,12.9-7.2,23.2-10.7,31.1-10.7s10,3.2,10,9.7a30.2,30.2,0,0,1-1.2,7.3l8.2-15.7a42.1,42.1,0,0,0,8.6,1.1,79.8,79.8,0,0,0,11.3-1.1l-28.6,47.4c-10,16.7-14.9,27.6-14.9,32.9s2.1,7.6,6.3,7.6,11.2-4.9,20.8-14.8,19.1-22.1,29-36.6c.6-1.1,1.2-1.6,1.8-1.6A.8.8,0,0,1,462.4,665.6Zm-44.6-26.8c0-5.3-2.4-7.9-7.3-7.9q-14.8,0-39.1,29.2t-24.2,47.1c0,7,3.1,10.5,9.4,10.5s20.3-12.3,38.7-37.1Q417.8,650.1,417.8,638.8Z"/><path d="M539.8,654.4q0,26.4-32.9,48.1c-17.8,11.8-31.7,17.6-41.8,17.6-6.9,0-10.3-3.2-10.3-9.7a26.6,26.6,0,0,1,1.6-7.9L394.3,806a40.2,40.2,0,0,0-9.2-1.3,29.1,29.1,0,0,0-10.5,1.9L507.6,588a28.5,28.5,0,0,0,8.5,1.4,52.4,52.4,0,0,0,10.7-1.4l-48.1,77.7c11.6-15.3,20-25.4,25.2-30.1s10.5-7.1,15.6-7.1,10.6,2.5,14.5,7.4S539.8,647,539.8,654.4Zm-12-13c0-7-3.1-10.5-9.4-10.5q-11.8,0-39.7,38.1-21.4,29.4-21.5,40.5c0,5.5,2.5,8.2,7.6,8.2q14.8,0,38.9-29.1C519.8,669.3,527.8,653.5,527.8,641.4Z"/><path d="M606.1,665.6a11.5,11.5,0,0,1-1.6,2.6l-7,9.6q-30.4,42.3-46.5,42.3a16.9,16.9,0,0,1-12.8-5.4,18.9,18.9,0,0,1-5.1-13.5c0-6.3,3.8-15.8,11.2-28.5l25.3-42.9a41.7,41.7,0,0,0,7.9,1.1,102.9,102.9,0,0,0,12.3-1.1l-36.7,60.4c-5.3,8.7-8,15.5-8,20.2s2.6,7.3,7.6,7.3q14.5,0,50.8-51.4c.5-1.1,1.1-1.6,1.6-1.6S606.1,665,606.1,665.6Zm-2.3-66.9c0,3.7-1.6,7.3-4.8,10.6s-6.7,4.9-10.5,4.9-7.3-2.4-7.3-7.3,1.7-7,5.1-10.3,6.8-4.9,10.5-4.9S603.8,594,603.8,598.7Z"/><path d="M666.1,628.5l-1.3,2.4H643.6l-36.1,61.7c-4.4,7.5-6.7,13.4-6.7,17.8s2.6,7.3,7.7,7.3q14.7,0,49.8-51.4c.7-1.1,1.4-1.6,1.9-1.6s1,.3,1,.9a17.9,17.9,0,0,1-1.6,2.6l-7,9.6q-30.5,42.3-45.9,42.3a16.4,16.4,0,0,1-12.7-5.5,19.2,19.2,0,0,1-5.1-13.7c0-6.5,2.8-14.6,8.5-24.3l27.3-45.7H608.1l1.7-2.4H626L644.9,597a33.9,33.9,0,0,0,18.6,0l-18.6,31.5Z"/><path d="M775.1,665.6q0,3.4-23.7,31.5c-12.8,15.4-22.8,23-30.2,23a15.1,15.1,0,0,1-12.1-5.5c-3.2-3.8-4.7-8.4-4.7-14.1s1.7-12.1,5.1-18.9c-10.8,15.1-19,25.3-24.7,30.6s-11.3,7.9-16.7,7.9-10.5-2.4-14.4-7.3-5.9-11.1-5.9-18.6c0-20.7,14.7-39.1,43.9-55,12.9-7.2,23.2-10.7,31.1-10.7s10.1,3.2,10.1,9.7a31.3,31.3,0,0,1-1.3,7.3l8.2-15.7a42.1,42.1,0,0,0,8.6,1.1,82.3,82.3,0,0,0,11.4-1.1l-28.7,47.4c-9.9,16.7-14.9,27.6-14.9,32.9s2.1,7.6,6.3,7.6,11.3-4.9,20.8-14.8a276.7,276.7,0,0,0,29-36.6c.7-1.1,1.3-1.6,1.8-1.6S775.1,665,775.1,665.6Zm-44.7-26.8c0-5.3-2.4-7.9-7.2-7.9-10,0-23,9.7-39.2,29.2s-24.2,35.1-24.2,47.1c0,7,3.2,10.5,9.4,10.5s20.4-12.3,38.7-37.1Q730.4,650.1,730.4,638.8Z"/><path d="M860.3,550.9Q792.4,664.2,781,684c-7.5,13.3-11.2,22.1-11.2,26.4s2,7.3,6.2,7.3c9,0,25.7-17.1,49.9-51.4.5-1.1,1.2-1.6,2-1.6a.8.8,0,0,1,.6.9,4,4,0,0,1-1.6,2.6l-7,9.6q-30.6,42.3-45.2,42.3a14.4,14.4,0,0,1-11.5-5.2c-2.9-3.5-4.4-8-4.4-13.4a38.8,38.8,0,0,1,4.1-17.2c2.8-5.6,12.1-21.7,28.1-48.2q29.3-48.7,49.4-84.6a32.1,32.1,0,0,0,8.6,1.3A31.5,31.5,0,0,0,860.3,550.9Z"/></svg>